<?xml version="1.0" encoding="utf-8"?>
<!-- Generator: Adobe Illustrator 16.0.0, SVG Export Plug-In . SVG Version: 6.00 Build 0)  -->
<!DOCTYPE svg PUBLIC "-//W3C//DTD SVG 1.1//EN" "http://www.w3.org/Graphics/SVG/1.1/DTD/svg11.dtd">
<svg version="1.1" id="Layer_1" xmlns="http://www.w3.org/2000/svg" xmlns:xlink="http://www.w3.org/1999/xlink" x="0px" y="0px"
	 width="60px" height="80.289px" viewBox="20.163 10.001 60 80.289" enable-background="new 20.163 10.001 60 80.289"
	 xml:space="preserve">
<g>
	<radialGradient id="SVGID_1_" cx="50.1631" cy="61.6465" r="21.333" gradientUnits="userSpaceOnUse">
		<stop  offset="0" style="stop-color:#C7101B"/>
		<stop  offset="1" style="stop-color:#E2710B"/>
	</radialGradient>
	<path fill="url(#SVGID_1_)" d="M70.084,66.335h-7.001c-2.209,0-4-1.791-4-4s1.791-4,4-4h4.149l-1.666-4.666h-6.483
		c-2.209,0-4-1.791-4-4s1.791-4,4-4h3.626l-1.667-4.667H39.351L28.248,72.143l-0.085,10.148h44V72.143l-2.074-5.809
		C70.087,66.334,70.086,66.335,70.084,66.335z"/>
	<polygon fill="none" points="56.236,27.541 56.236,18.041 44.151,18.041 44.151,27.541 42.204,33.001 58.186,33.001 	"/>
	<path fill="#FFFFFF" d="M79.697,69.451L64.234,26.155v-8.114c0-0.013-0.002-0.026-0.002-0.04H66c2.209,0,4-1.791,4-4s-1.791-4-4-4
		H34c-2.209,0-4,1.791-4,4s1.791,4,4,4h2.152c0,0.013-0.002,0.026-0.002,0.04v8.116L20.713,69.455
		c-0.3,0.841-0.457,1.727-0.465,2.619l-0.085,10.148c-0.018,2.135,0.817,4.187,2.319,5.7c1.502,1.515,3.547,2.367,5.681,2.367h44
		c4.418,0,8-3.582,8-8V72.143C80.163,71.225,80.006,70.314,79.697,69.451z M72.163,82.291h-44l0.085-10.148l11.103-31.141h21.691
		l1.667,4.667h-3.626c-2.209,0-4,1.791-4,4s1.791,4,4,4h6.483l1.666,4.666h-4.149c-2.209,0-4,1.791-4,4s1.791,4,4,4h7.001
		c0.002,0,0.003-0.001,0.005-0.001l2.074,5.809V82.291z M44.151,27.541v-9.5h12.085v9.5l1.949,5.46H42.204L44.151,27.541z"/>
</g>
</svg>
